<svg width="427" height="369" viewBox="0 0 427 369" fill="none" xmlns="http://www.w3.org/2000/svg">
<path d="M200 1.00005C246.634 7.98988 233.497 65.5475 269.5 96C313.276 133.027 412.547 68.5336 425 124.5C437.453 180.466 339.919 184.1 322.259 239.5C305.036 293.533 366.238 325.188 322.259 360.994C284.954 391.367 245.632 318.768 234.558 296.037C233.025 292.891 228.835 292.063 226.266 294.44C203.927 315.104 115.971 392.121 77.7406 360.994C40.4994 330.674 99.8163 253.103 118.865 230.047C121.313 227.084 119.81 222.457 116.08 221.53C86.3927 214.15 -11.4791 186 2.18016 138.506C16.0588 90.2486 118.663 125.337 146.404 135.811C149.736 137.069 153.332 134.663 153.425 131.103C154.196 101.689 159.768 -5.03025 200 1.00005Z" fill="#FF0005"/>
</svg>
