<svg width="686" height="572" viewBox="0 0 686 572" fill="none" xmlns="http://www.w3.org/2000/svg">
<path d="M247.279 0.416456C298.751 7.90099 286.94 32.4141 300.583 81.0614C332.299 194.145 461.201 66.8544 488.99 124.312C519.811 188.04 425.6 236.883 353.887 248.208C333.342 251.453 317.894 228.248 300.583 248.208C282.114 269.503 298.374 323.21 300.385 329.56C300.518 329.978 300.601 330.346 300.641 330.783C301.657 341.692 314.832 496 247.279 496C189.21 496 190.793 381.979 193.027 343.033C193.32 337.928 187.471 334.532 183.159 337.282C147.065 360.305 31.564 428.198 5.56841 372.104C-18.8375 319.44 43.5052 269.81 66.7014 253.672C70.4134 251.089 70.4135 245.327 66.7014 242.745C43.5053 226.607 -18.8375 176.976 5.56841 124.312C30.6573 70.1748 147.401 137.152 183.387 159.482C187.674 162.142 193.405 158.798 193.141 153.759C191.039 113.781 189.329 -8.01015 247.279 0.416456Z" fill="#FFEE2E"/>
<path d="M309.756 16.5173C311.643 105.952 332.536 130.332 420.923 106.915" stroke="white" stroke-width="4"/>
<path d="M328.958 296.447C387.75 358.3 519.098 458.425 590.088 377.54C638.556 322.317 564.584 276.246 513.898 338.719C463.212 401.191 534.948 518.771 674.577 446.088M674.577 446.088L645.94 432.194M674.577 446.088L655.06 483.75" stroke="white" stroke-width="4" stroke-linecap="round"/>
</svg>
