<svg width="644" height="637" viewBox="0 0 644 637" fill="none" xmlns="http://www.w3.org/2000/svg">
<path d="M160.095 412.978C71.1581 390.523 25.8318 297.875 52.409 227.073C78.9861 156.271 137.073 123.017 210.724 119.219C284.755 115.4 283.572 224.732 357.496 212.369C422.868 201.437 420.231 86.5698 482.237 99.4675C543.804 112.274 471.011 234.028 452.345 263.527C450.414 266.579 452.161 270.664 455.702 271.376C489.925 278.257 628.246 309.726 594.977 363.091C566.639 408.545 466.202 385.844 435.895 377.76C432.088 376.744 428.426 380.205 429.297 384.048C436.703 416.719 457.645 530.63 394.539 549.036C325.553 569.156 322.889 426.509 323.29 390.809C323.331 387.118 319.537 384.507 316.111 385.878C291.416 395.756 210.201 425.629 160.095 412.978Z" fill="#28AF8A"/>
<path d="M355.262 368.588C355.262 368.588 280.79 369.422 273.696 446.512" stroke="black" stroke-width="3"/>
<path d="M244.338 415.174C244.338 415.174 245.172 340.703 322.262 333.609" stroke="black" stroke-width="3"/>
</svg>
